<?xml version="1.0" standalone="no"?>
<!DOCTYPE svg PUBLIC "-//W3C//DTD SVG 20010904//EN"
 "http://www.w3.org/TR/2001/REC-SVG-20010904/DTD/svg10.dtd">
<svg version="1.0" xmlns="http://www.w3.org/2000/svg"
 width="640.000000pt" height="640.000000pt" viewBox="0 0 640.000000 640.000000"
 preserveAspectRatio="xMidYMid meet">
<metadata>
Created by potrace 1.11, written by Peter Selinger 2001-2013
</metadata>
<g transform="translate(0.000000,640.000000) scale(0.100000,-0.100000)"
fill="#000000" stroke="none">
<path d="M3514 5741 c-29 -18 -59 -72 -69 -126 -2 -11 -4 -20 -5 -20 -1 0 -3
-7 -5 -15 -5 -20 -27 -96 -60 -205 -15 -49 -28 -97 -30 -105 -2 -8 -4 -15 -5
-15 -1 0 -3 -7 -5 -15 -1 -8 -13 -48 -25 -89 -12 -41 -23 -81 -26 -90 -2 -9
-17 -62 -34 -118 -16 -57 -44 -149 -60 -205 -17 -57 -32 -110 -34 -118 -2 -8
-34 -118 -71 -245 -37 -126 -86 -299 -111 -383 -24 -85 -46 -157 -48 -161 -3
-4 -7 -18 -10 -32 -7 -35 -13 -55 -41 -149 -14 -47 -27 -92 -29 -101 -3 -9
-14 -49 -27 -90 -12 -41 -23 -79 -25 -85 -1 -6 -9 -37 -18 -68 -9 -31 -16 -57
-15 -58 2 -2 -3 -12 -9 -24 -6 -11 -14 -34 -17 -50 -8 -38 -13 -58 -15 -61 -2
-2 -3 -6 -4 -10 -1 -5 -5 -14 -9 -20 -5 -7 -6 -13 -4 -13 3 0 -2 -21 -10 -47
-29 -96 -125 -429 -129 -452 -3 -14 -8 -29 -12 -35 -3 -6 -7 -15 -8 -21 -1 -5
-12 -44 -24 -85 -28 -96 -37 -127 -48 -170 -6 -19 -17 -56 -25 -83 -8 -26 -16
-50 -16 -52 -1 -3 -3 -10 -6 -17 -4 -16 -56 -199 -60 -213 -1 -5 -5 -17 -8
-25 -3 -8 -20 -67 -37 -130 -17 -63 -34 -122 -37 -130 -3 -8 -7 -20 -8 -27 -5
-20 -56 -197 -62 -213 -7 -17 -10 -27 -17 -55 -3 -11 -26 -92 -51 -180 -59
-203 -58 -200 -43 -241 16 -45 51 -66 168 -98 147 -42 232 -67 273 -82 20 -8
37 -12 37 -9 0 2 15 -2 33 -10 17 -7 35 -14 40 -14 15 -1 64 -14 108 -28 85
-27 147 -1 173 70 9 23 50 159 91 302 73 250 80 274 89 313 3 9 14 46 25 81
12 35 23 74 26 85 5 25 12 51 105 366 97 332 120 412 125 431 2 9 20 72 40
140 21 68 38 129 39 134 1 6 10 37 20 70 10 33 20 67 22 75 2 8 12 44 23 80
18 60 138 471 161 550 5 19 24 82 41 140 17 58 35 123 40 145 5 22 12 47 16
55 8 19 9 22 28 95 9 33 17 65 19 70 2 6 4 12 4 15 0 3 6 19 12 35 7 17 14 39
16 50 4 19 28 104 44 155 4 14 15 50 24 80 8 30 47 165 86 300 39 135 89 308
111 385 22 77 43 147 46 155 3 8 8 24 10 35 2 11 10 42 19 68 9 26 17 53 18
60 1 7 12 44 24 82 50 163 55 197 37 240 -15 35 -46 54 -119 76 -39 11 -100
30 -136 41 -36 11 -74 21 -85 24 -11 2 -49 13 -85 23 -219 66 -232 70 -285 77
-29 3 -49 -1 -71 -15z"/>
<path d="M1515 4660 c-24 -10 -43 -26 -208 -183 -71 -67 -138 -129 -147 -137
-16 -14 -195 -182 -309 -290 -40 -37 -186 -175 -336 -315 -18 -16 -84 -78
-146 -137 -63 -58 -134 -125 -159 -148 -201 -188 -213 -202 -208 -252 4 -50
16 -66 103 -148 44 -40 103 -95 130 -121 82 -78 154 -145 269 -253 60 -55 131
-122 158 -147 27 -26 94 -89 149 -140 109 -102 128 -119 335 -315 76 -72 164
-154 194 -182 30 -28 80 -73 109 -101 57 -53 99 -69 147 -57 27 7 43 22 189
178 44 47 130 138 190 202 118 125 144 162 140 198 -1 13 -3 30 -4 39 -1 15
-59 76 -121 129 -14 12 -52 45 -84 73 -32 29 -67 59 -76 67 -46 41 -156 137
-175 155 -13 11 -49 43 -81 70 -32 28 -68 59 -80 70 -12 11 -50 45 -85 75 -34
30 -72 63 -83 74 -12 10 -43 37 -70 60 -27 22 -55 47 -62 54 -15 14 -19 42 -6
42 7 0 20 11 142 120 30 27 64 57 76 67 12 10 52 46 90 79 38 34 94 83 124
109 30 26 60 52 65 59 6 6 39 36 75 66 35 30 72 62 80 70 9 8 47 42 85 75 38
33 80 71 94 84 14 13 33 28 41 35 34 25 57 71 55 109 -3 40 -23 70 -102 153
-26 28 -102 108 -168 178 -66 71 -140 150 -165 176 -25 26 -55 53 -67 59 -25
13 -70 13 -98 1z"/>
<path d="M4790 4663 c-16 -6 -72 -63 -235 -238 -55 -59 -135 -144 -177 -188
-43 -45 -81 -93 -86 -107 -7 -22 -8 -34 -3 -84 1 -15 153 -156 371 -343 24
-21 51 -45 60 -53 9 -8 70 -62 135 -120 66 -58 122 -107 125 -110 3 -3 59 -53
126 -112 132 -115 129 -108 64 -162 -35 -29 -144 -124 -184 -161 -12 -11 -46
-40 -75 -65 -29 -25 -65 -56 -80 -70 -15 -14 -54 -48 -86 -77 -33 -28 -76 -65
-95 -83 -19 -17 -57 -50 -84 -73 -27 -23 -72 -63 -100 -88 -28 -25 -76 -68
-107 -95 -61 -54 -77 -82 -73 -132 3 -37 24 -68 116 -163 35 -37 110 -117 168
-179 217 -233 214 -230 272 -230 30 0 64 16 94 45 23 21 271 254 305 286 20
19 89 84 154 144 64 61 133 125 154 144 38 36 250 235 380 357 42 40 92 86
111 104 19 18 92 87 163 153 70 66 137 128 149 138 46 41 60 101 34 151 -8 14
-40 50 -71 80 -32 29 -79 73 -105 98 -49 46 -258 242 -320 300 -96 89 -280
262 -336 315 -34 33 -108 103 -165 155 -56 52 -130 122 -165 155 -35 33 -89
84 -121 114 -32 29 -85 79 -118 110 -33 32 -71 65 -85 74 -24 16 -79 21 -110
10z"/>
</g>
</svg>
